<svg width="128" height="128" viewBox="0 0 128 128" fill="none" xmlns="http://www.w3.org/2000/svg">
<path opacity="0.9" fill-rule="evenodd" clip-rule="evenodd" d="M127.808 59.0007C110.493 73.3647 88.255 82 64 82C39.745 82 17.5069 73.3647 0.192374 59.0007C0.0649141 60.6504 0 62.3176 0 64C0 99.3462 28.6538 128 64 128C99.3462 128 128 99.3462 128 64C128 62.3176 127.935 60.6504 127.808 59.0007Z" fill="black"/>
<path opacity="0.7" fill-rule="evenodd" clip-rule="evenodd" d="M123.5 40.3802C106.874 52.7083 86.2883 60 64 60C41.7117 60 21.1264 52.7083 4.49966 40.3802C1.59613 47.6882 0 55.6577 0 64C0 99.3462 28.6538 128 64 128C99.3462 128 128 99.3462 128 64C128 55.6577 126.404 47.6882 123.5 40.3802Z" fill="black"/>
<path opacity="0.5" fill-rule="evenodd" clip-rule="evenodd" d="M16.5797 21.0188C6.27719 32.3786 0 47.4562 0 64C0 99.3462 28.6538 128 64 128C99.3462 128 128 99.3462 128 64C128 47.4562 121.723 32.3786 111.42 21.0188C97.5353 29.265 81.3206 34 64 34C46.6794 34 30.4647 29.265 16.5797 21.0188Z" fill="black"/>
</svg>
