<svg width="128" height="128" viewBox="0 0 128 128" fill="none" xmlns="http://www.w3.org/2000/svg">
<path opacity="0.9" fill-rule="evenodd" clip-rule="evenodd" d="M127.913 67.365C111.605 83.8131 88.9922 94 64 94C39.0078 94 16.3949 83.8131 0.0869446 67.365C1.83685 101.147 29.7825 128 64 128C98.2175 128 126.163 101.147 127.913 67.365Z" fill="black"/>
<path opacity="0.7" fill-rule="evenodd" clip-rule="evenodd" d="M125.823 47.3899C108.605 60.331 87.198 68 64 68C40.802 68 19.3952 60.331 2.17654 47.3899C0.756944 52.687 0 58.2551 0 64C0 99.3462 28.6538 128 64 128C99.3462 128 128 99.3462 128 64C128 58.2551 127.243 52.687 125.823 47.3899Z" fill="black"/>
<path opacity="0.5" fill-rule="evenodd" clip-rule="evenodd" d="M11.803 26.9577C4.3704 37.4123 0 50.1958 0 64C0 99.3462 28.6538 128 64 128C99.3462 128 128 99.3462 128 64C128 50.1958 123.63 37.4123 116.197 26.9577C101.084 36.4866 83.186 42 64 42C44.814 42 26.9157 36.4866 11.803 26.9577Z" fill="black"/>
</svg>
