<svg width="128" height="128" viewBox="0 0 128 128" fill="none" xmlns="http://www.w3.org/2000/svg">
<path opacity="0.9" fill-rule="evenodd" clip-rule="evenodd" d="M64 115C98.2417 115 126 87.2417 126 53C126 50.9678 125.902 48.9584 125.711 46.9763C127.203 52.3969 128 58.1054 128 64C128 99.3462 99.3462 128 64 128C28.6538 128 0 99.3462 0 64C0 58.1054 0.79691 52.3969 2.28887 46.9763C2.09777 48.9584 2 50.9678 2 53C2 87.2417 29.7583 115 64 115Z" fill="black"/>
<path opacity="0.7" fill-rule="evenodd" clip-rule="evenodd" d="M127.859 59.7138C116.897 84.0546 92.4274 101 64 101C35.5726 101 11.103 84.0546 0.141256 59.7138C0.0475806 61.1304 0 62.5597 0 64C0 99.3462 28.6538 128 64 128C99.3462 128 128 99.3462 128 64C128 62.5597 127.952 61.1304 127.859 59.7138Z" fill="black"/>
<path opacity="0.5" fill-rule="evenodd" clip-rule="evenodd" d="M127.974 62.1596C109.785 74.6743 87.7478 82 64 82C40.2521 82 18.2153 74.6743 0.0259539 62.1596C0.00868995 62.7709 0 63.3845 0 64C0 99.3462 28.6538 128 64 128C99.3462 128 128 99.3462 128 64C128 63.3845 127.991 62.7709 127.974 62.1596Z" fill="black"/>
</svg>
