<svg width="128" height="128" viewBox="0 0 128 128" fill="none" xmlns="http://www.w3.org/2000/svg">
<path opacity="0.9" fill-rule="evenodd" clip-rule="evenodd" d="M127.753 69.6594C111.723 86.502 89.0874 97 64 97C38.9126 97 16.2771 86.502 0.246792 69.6594C3.11148 102.355 30.5609 128 64 128C97.4391 128 124.889 102.355 127.753 69.6594Z" fill="black"/>
<path opacity="0.7" fill-rule="evenodd" clip-rule="evenodd" d="M126.934 52.3041C109.333 65.3106 87.5646 73 64 73C40.4354 73 18.6667 65.3106 1.06624 52.3041C0.36598 56.0961 0 60.0053 0 64C0 99.3462 28.6538 128 64 128C99.3462 128 128 99.3462 128 64C128 60.0053 127.634 56.0961 126.934 52.3041Z" fill="black"/>
<path opacity="0.5" fill-rule="evenodd" clip-rule="evenodd" d="M9.75414 30.0225C3.57383 39.8687 0 51.517 0 64C0 99.3462 28.6538 128 64 128C99.3462 128 128 99.3462 128 64C128 51.517 124.426 39.8687 118.246 30.0225C102.62 40.1313 83.9955 46 64 46C44.0045 46 25.3797 40.1313 9.75414 30.0225Z" fill="black"/>
</svg>
