<svg width="128" height="128" viewBox="0 0 128 128" fill="none" xmlns="http://www.w3.org/2000/svg">
<path opacity="0.9" fill-rule="evenodd" clip-rule="evenodd" d="M14.0851 23.9401C5.27293 34.906 0 48.8372 0 64C0 99.3462 28.6538 128 64 128C99.3462 128 128 99.3462 128 64C128 48.8372 122.727 34.906 113.915 23.9401C100.389 35.2161 82.9866 42 64 42C45.0134 42 27.6112 35.2161 14.0851 23.9401Z" fill="black"/>
<path opacity="0.7" fill-rule="evenodd" clip-rule="evenodd" d="M27.2687 11.5833C10.7785 23.1603 0 42.3214 0 64C0 99.3462 28.6538 128 64 128C99.3462 128 128 99.3462 128 64C128 42.3214 117.222 23.1603 100.731 11.5833C91.0947 20.5297 78.1862 26 64 26C49.8138 26 36.9052 20.5297 27.2687 11.5833Z" fill="black"/>
<path opacity="0.5" fill-rule="evenodd" clip-rule="evenodd" d="M43.0761 3.4986C18.005 12.1678 0 35.9813 0 64C0 99.3462 28.6538 128 64 128C99.3462 128 128 99.3462 128 64C128 35.9813 109.995 12.1678 84.9239 3.4986C79.5194 8.75957 72.1381 12 64 12C55.8619 12 48.4806 8.75957 43.0761 3.4986Z" fill="black"/>
</svg>
