<svg width="128" height="128" viewBox="0 0 128 128" fill="none" xmlns="http://www.w3.org/2000/svg">
<path opacity="0.9" fill-rule="evenodd" clip-rule="evenodd" d="M126.298 78.723C109.62 93.2222 87.835 102 64 102C40.165 102 18.3801 93.2222 1.70166 78.723C8.35233 106.972 33.7205 128 64 128C94.2795 128 119.648 106.972 126.298 78.723Z" fill="black"/>
<path opacity="0.7" fill-rule="evenodd" clip-rule="evenodd" d="M127.974 62.1596C109.785 74.6744 87.7478 82 64 82C40.2522 82 18.2153 74.6744 0.0259534 62.1596C0.0086898 62.7709 0 63.3845 0 64C0 99.3462 28.6538 128 64 128C99.3462 128 128 99.3462 128 64C128 63.3845 127.991 62.7709 127.974 62.1596Z" fill="black"/>
<path opacity="0.5" fill-rule="evenodd" clip-rule="evenodd" d="M122.696 38.4482C105.437 50.7583 84.3144 58 61.5 58C40.3813 58 20.7119 51.7948 4.21562 41.1081C1.49221 48.2162 0 55.9339 0 64C0 99.3462 28.6538 128 64 128C99.3462 128 128 99.3462 128 64C128 54.9165 126.108 46.275 122.696 38.4482Z" fill="black"/>
</svg>
