<svg width="128" height="128" viewBox="0 0 128 128" fill="none" xmlns="http://www.w3.org/2000/svg">
<path opacity="0.9" fill-rule="evenodd" clip-rule="evenodd" d="M127.603 71.1702C110.318 85.4326 88.1595 94 64 94C39.8405 94 17.6821 85.4326 0.397163 71.1702C3.96138 103.141 31.0777 128 64 128C96.9223 128 124.039 103.141 127.603 71.1702Z" fill="black"/>
<path opacity="0.7" fill-rule="evenodd" clip-rule="evenodd" d="M127.162 53.6146C109.4 66.4414 87.5828 74 64 74C40.4172 74 18.5998 66.4414 0.838345 53.6146C0.286778 56.9948 0 60.4639 0 64C0 99.3462 28.6538 128 64 128C99.3462 128 128 99.3462 128 64C128 60.4639 127.713 56.9948 127.162 53.6146Z" fill="black"/>
<path opacity="0.5" fill-rule="evenodd" clip-rule="evenodd" d="M7.02417 34.8198C2.5339 43.5697 0 53.4889 0 64C0 99.3462 28.6538 128 64 128C99.3462 128 128 99.3462 128 64C128 53.4889 125.466 43.5697 120.976 34.8198C104.658 45.6748 85.0678 52 64 52C42.9322 52 23.3418 45.6748 7.02417 34.8198Z" fill="black"/>
</svg>
