<svg width="128" height="128" viewBox="0 0 128 128" fill="none" xmlns="http://www.w3.org/2000/svg">
<path opacity="0.9" fill-rule="evenodd" clip-rule="evenodd" d="M127.832 59.3295C122.071 89.332 95.6829 112 64 112C32.3171 112 5.92858 89.332 0.167818 59.3295C0.0565818 60.8718 0 62.4293 0 64C0 99.3462 28.6538 128 64 128C99.3462 128 128 99.3462 128 64C128 62.4293 127.943 60.8718 127.832 59.3295Z" fill="black"/>
<path opacity="0.7" fill-rule="evenodd" clip-rule="evenodd" d="M127.993 63.0176C113.396 82.4387 90.1652 95 64 95C37.8348 95 14.6035 82.4387 0.00738649 63.0176C0.00246802 63.3445 0 63.672 0 64C0 99.3462 28.6538 128 64 128C99.3462 128 128 99.3462 128 64C128 63.672 127.998 63.3445 127.993 63.0176Z" fill="black"/>
<path opacity="0.5" fill-rule="evenodd" clip-rule="evenodd" d="M127.316 54.609C109.254 66.8496 87.4621 74 64 74C40.5379 74 18.7458 66.8496 0.684118 54.609C0.233422 57.6741 0 60.8098 0 64C0 99.3462 28.6538 128 64 128C99.3462 128 128 99.3462 128 64C128 60.8098 127.767 57.6741 127.316 54.609Z" fill="black"/>
</svg>
