<svg width="128" height="128" viewBox="0 0 128 128" fill="none" xmlns="http://www.w3.org/2000/svg">
<path opacity="0.9" fill-rule="evenodd" clip-rule="evenodd" d="M124.651 43.5141C107.828 56.366 86.8054 64 64 64C41.1946 64 20.1722 56.366 3.34891 43.5141C1.17727 49.9459 0 56.8354 0 64C0 99.3462 28.6538 128 64 128C99.3462 128 128 99.3462 128 64C128 56.8354 126.823 49.9458 124.651 43.5141Z" fill="black"/>
<path opacity="0.7" fill-rule="evenodd" clip-rule="evenodd" d="M11.3178 27.6498C4.18056 37.9742 0 50.4989 0 64C0 99.3462 28.6538 128 64 128C99.3462 128 128 99.3462 128 64C128 50.4989 123.819 37.9742 116.682 27.6498C101.706 37.9626 83.5582 44 64 44C44.4418 44 26.2938 37.9626 11.3178 27.6498Z" fill="black"/>
<path opacity="0.5" fill-rule="evenodd" clip-rule="evenodd" d="M26.6822 12C10.5233 23.6169 0 42.5795 0 64C0 99.3462 28.6538 128 64 128C99.3462 128 128 99.3462 128 64C128 42.5795 117.477 23.6169 101.318 12C90.8127 19.5523 77.9258 24 64 24C50.0742 24 37.1873 19.5523 26.6822 12Z" fill="black"/>
</svg>
