<svg width="128" height="128" viewBox="0 0 128 128" fill="none" xmlns="http://www.w3.org/2000/svg">
<path opacity="0.9" fill-rule="evenodd" clip-rule="evenodd" d="M120.861 34.5977C105.14 46.7615 85.4155 54 64 54C42.5845 54 22.8597 46.7615 7.1387 34.5977C2.57701 43.4017 0 53.3999 0 64C0 99.3462 28.6538 128 64 128C99.3462 128 128 99.3462 128 64C128 53.3999 125.423 43.4017 120.861 34.5977Z" fill="black"/>
<path opacity="0.7" fill-rule="evenodd" clip-rule="evenodd" d="M20.5599 17C7.91636 28.6916 0 45.4213 0 64C0 99.3462 28.6538 128 64 128C99.3462 128 128 99.3462 128 64C128 45.4213 120.084 28.6916 107.44 17C96.029 27.5519 80.7675 34 64 34C47.2325 34 31.971 27.5519 20.5599 17Z" fill="black"/>
<path opacity="0.5" fill-rule="evenodd" clip-rule="evenodd" d="M36.6025 6.14419C14.9634 16.4095 0 38.4573 0 64C0 99.3462 28.6538 128 64 128C99.3462 128 128 99.3462 128 64C128 38.4573 113.037 16.4095 91.3976 6.14419C84.2396 12.8758 74.6014 17 64 17C53.3986 17 43.7604 12.8758 36.6025 6.14419Z" fill="black"/>
</svg>
