<svg width="128" height="128" viewBox="0 0 128 128" fill="none" xmlns="http://www.w3.org/2000/svg">
<path opacity="0.9" fill-rule="evenodd" clip-rule="evenodd" d="M64 114C97.1371 114 124 87.1371 124 54C124 47.0677 122.824 40.4099 120.662 34.2153C125.348 43.1117 128 53.2461 128 64C128 99.3462 99.3462 128 64 128C28.6538 128 0 99.3462 0 64C0 53.2461 2.65232 43.1117 7.33848 34.2153C5.17566 40.4099 4 47.0677 4 54C4 87.1371 30.8629 114 64 114Z" fill="black"/>
<path opacity="0.7" fill-rule="evenodd" clip-rule="evenodd" d="M125.937 47.8197C124.463 80.7526 97.2967 107 64 107C30.7033 107 3.53705 80.7526 2.06298 47.8197C0.716611 52.9878 0 58.4102 0 64C0 99.3462 28.6538 128 64 128C99.3462 128 128 99.3462 128 64C128 58.4102 127.283 52.9878 125.937 47.8197Z" fill="black"/>
<path opacity="0.5" fill-rule="evenodd" clip-rule="evenodd" d="M127.453 55.5974C116.302 79.4637 92.0821 96 64 96C35.9179 96 11.698 79.4637 0.546645 55.5974C0.186045 58.3472 0 61.1519 0 64C0 99.3462 28.6538 128 64 128C99.3462 128 128 99.3462 128 64C128 61.1519 127.814 58.3472 127.453 55.5974Z" fill="black"/>
</svg>
