<svg width="128" height="128" viewBox="0 0 128 128" fill="none" xmlns="http://www.w3.org/2000/svg">
<path opacity="0.9" fill-rule="evenodd" clip-rule="evenodd" d="M123.946 41.5335C107.375 54.364 86.5792 62 64 62C41.4208 62 20.6251 54.364 4.05439 41.5335C1.43337 48.5237 0 56.0945 0 64C0 99.3462 28.6538 128 64 128C99.3462 128 128 99.3462 128 64C128 56.0945 126.567 48.5237 123.946 41.5335Z" fill="black"/>
<path opacity="0.7" fill-rule="evenodd" clip-rule="evenodd" d="M15.5759 22.1522C5.87089 33.3724 0 48.0006 0 64C0 99.3462 28.6538 128 64 128C99.3462 128 128 99.3462 128 64C128 48.0006 122.129 33.3724 112.424 22.1522C99.1211 32.7005 82.2962 39 64 39C45.7038 39 28.8789 32.7005 15.5759 22.1522Z" fill="black"/>
<path opacity="0.5" fill-rule="evenodd" clip-rule="evenodd" d="M32.0461 8.53544C12.891 19.5948 0 40.292 0 64C0 99.3462 28.6538 128 64 128C99.3462 128 128 99.3462 128 64C128 40.292 115.109 19.5948 95.9539 8.53544C87.0064 15.1137 75.9571 19 64 19C52.0429 19 40.9936 15.1137 32.0461 8.53544Z" fill="black"/>
</svg>
