<svg width="128" height="128" viewBox="0 0 128 128" fill="none" xmlns="http://www.w3.org/2000/svg">
<path opacity="0.9" fill-rule="evenodd" clip-rule="evenodd" d="M19.5027 18C7.47663 29.6356 0 45.9447 0 64C0 99.3462 28.6538 128 64 128C99.3462 128 128 99.3462 128 64C128 45.9447 120.523 29.6356 108.497 18C96.9803 29.143 81.2909 36 64 36C46.7091 36 31.0197 29.143 19.5027 18Z" fill="black"/>
<path opacity="0.7" fill-rule="evenodd" clip-rule="evenodd" d="M33.4075 7.77144C13.5043 18.6232 0 39.7345 0 64C0 99.3462 28.6538 128 64 128C99.3462 128 128 99.3462 128 64C128 39.7345 114.496 18.6232 94.5925 7.77144C87.255 16.4726 76.273 22 64 22C51.727 22 40.745 16.4726 33.4075 7.77144Z" fill="black"/>
<path opacity="0.5" fill-rule="evenodd" clip-rule="evenodd" d="M48.8379 1.80668C20.8101 8.6157 0 33.8776 0 64C0 99.3462 28.6538 128 64 128C99.3462 128 128 99.3462 128 64C128 33.8776 107.19 8.6157 79.1621 1.80668C75.0288 6.30333 69.7506 9 64 9C58.2494 9 52.9712 6.30333 48.8379 1.80668Z" fill="black"/>
</svg>
