<svg width="128" height="128" viewBox="0 0 128 128" fill="none" xmlns="http://www.w3.org/2000/svg">
<path opacity="0.9" fill-rule="evenodd" clip-rule="evenodd" d="M64 128C99.3462 128 128 99.3462 128 64C128 28.6538 99.3462 0 64 0C28.6538 0 0 28.6538 0 64C0 99.3462 28.6538 128 64 128ZM64 117C96.0325 117 122 91.0325 122 59C122 26.9675 96.0325 1 64 1C31.9675 1 6 26.9675 6 59C6 91.0325 31.9675 117 64 117Z" fill="black"/>
<path opacity="0.7" fill-rule="evenodd" clip-rule="evenodd" d="M64 111C97.6894 111 125 83.6894 125 50C125 47.8212 124.886 45.6691 124.663 43.5493C126.827 49.971 128 56.8485 128 64C128 99.3462 99.3462 128 64 128C28.6538 128 0 99.3462 0 64C0 56.8485 1.17297 49.971 3.33702 43.5493C3.11423 45.6691 3 47.8212 3 50C3 83.6894 30.3106 111 64 111Z" fill="black"/>
<path opacity="0.5" fill-rule="evenodd" clip-rule="evenodd" d="M127.041 52.9009C119.947 81.1128 94.413 102 64 102C33.587 102 8.05252 81.1128 0.958969 52.9009C0.328648 56.5059 0 60.2145 0 64C0 99.3462 28.6538 128 64 128C99.3462 128 128 99.3462 128 64C128 60.2145 127.671 56.5059 127.041 52.9009Z" fill="black"/>
</svg>
