<svg width="128" height="128" viewBox="0 0 128 128" fill="none" xmlns="http://www.w3.org/2000/svg">
<path opacity="0.9" fill-rule="evenodd" clip-rule="evenodd" d="M64 118C97.6894 118 125 90.6894 125 57C125 48.7633 123.368 40.9079 120.408 33.7397C125.252 42.7498 128 53.054 128 64C128 99.3462 99.3462 128 64 128C28.6538 128 0 99.3462 0 64C0 53.054 2.74794 42.7498 7.59159 33.7397C4.6325 40.9079 3 48.7633 3 57C3 90.6894 30.3106 118 64 118Z" fill="black"/>
<path opacity="0.7" fill-rule="evenodd" clip-rule="evenodd" d="M127.499 55.9526C121.114 85.1458 95.109 107 64 107C32.891 107 6.88631 85.1458 0.501081 55.9526C0.170383 58.5885 0 61.2744 0 64C0 99.3462 28.6538 128 64 128C99.3462 128 128 99.3462 128 64C128 61.2744 127.83 58.5885 127.499 55.9526Z" fill="black"/>
<path opacity="0.5" fill-rule="evenodd" clip-rule="evenodd" d="M127.753 58.3352C113.143 77.5756 90.0223 90 64 90C37.9777 90 14.8573 77.5756 0.24727 58.3352C0.0835766 60.2016 0 62.0911 0 64C0 99.3462 28.6538 128 64 128C99.3462 128 128 99.3462 128 64C128 62.0911 127.916 60.2016 127.753 58.3352Z" fill="black"/>
</svg>
