<svg width="128" height="128" viewBox="0 0 128 128" fill="none" xmlns="http://www.w3.org/2000/svg">
<path opacity="0.9" fill-rule="evenodd" clip-rule="evenodd" d="M126.249 49.0685C108.958 62.2039 87.3895 70 64 70C40.6105 70 19.042 62.2039 1.75112 49.0685C0.606237 53.859 0 58.8587 0 64C0 99.3462 28.6538 128 64 128C99.3462 128 128 99.3462 128 64C128 58.8587 127.394 53.859 126.249 49.0685Z" fill="black"/>
<path opacity="0.7" fill-rule="evenodd" clip-rule="evenodd" d="M8.22462 32.5906C2.98806 41.8694 0 52.5858 0 64C0 99.3462 28.6538 128 64 128C99.3462 128 128 99.3462 128 64C128 52.5858 125.012 41.8694 119.775 32.5906C103.944 43.5676 84.7234 50 64 50C43.2766 50 24.0556 43.5676 8.22462 32.5906Z" fill="black"/>
<path opacity="0.5" fill-rule="evenodd" clip-rule="evenodd" d="M21.3268 16.3023C8.23726 28.0209 0 45.0485 0 64C0 99.3462 28.6538 128 64 128C99.3462 128 128 99.3462 128 64C128 45.0485 119.763 28.0209 106.673 16.3023C94.4115 24.3313 79.751 29 64 29C48.249 29 33.5885 24.3313 21.3268 16.3023Z" fill="black"/>
</svg>
