<svg width="128" height="128" viewBox="0 0 128 128" fill="none" xmlns="http://www.w3.org/2000/svg">
<path opacity="0.9" fill-rule="evenodd" clip-rule="evenodd" d="M127.401 72.7954C112.773 91.7735 89.8142 104 64 104C38.1858 104 15.2273 91.7735 0.599407 72.7954C4.88558 103.98 31.6377 128 64 128C96.3623 128 123.114 103.98 127.401 72.7954Z" fill="black"/>
<path opacity="0.7" fill-rule="evenodd" clip-rule="evenodd" d="M128 64.1418C109.806 76.6674 87.7591 84 64 84C40.2409 84 18.1945 76.6674 0.000152588 64.1418C0.0766765 99.4228 28.7011 128 64 128C99.2989 128 127.923 99.4228 128 64.1418Z" fill="black"/>
<path opacity="0.5" fill-rule="evenodd" clip-rule="evenodd" d="M125.144 45.037C107.759 56.9983 86.6973 64 64 64C41.3027 64 20.2406 56.9983 2.856 45.037C0.999707 51.0291 0 57.3978 0 64C0 99.3462 28.6538 128 64 128C99.3462 128 128 99.3462 128 64C128 57.3978 127 51.0291 125.144 45.037Z" fill="black"/>
</svg>
