<svg width="128" height="128" viewBox="0 0 128 128" fill="none" xmlns="http://www.w3.org/2000/svg">
<path opacity="0.9" fill-rule="evenodd" clip-rule="evenodd" d="M127.952 66.5062C117.036 90.9582 92.5082 108 64 108C35.4918 108 10.964 90.9582 0.0481682 66.5062C1.36449 100.691 29.493 128 64 128C98.507 128 126.636 100.691 127.952 66.5062Z" fill="black"/>
<path opacity="0.7" fill-rule="evenodd" clip-rule="evenodd" d="M127.969 61.9752C112.389 79.7656 89.5062 91 64 91C38.4938 91 15.6115 79.7656 0.0314231 61.9752C0.0105259 62.6475 0 63.3225 0 64C0 99.3462 28.6538 128 64 128C99.3462 128 128 99.3462 128 64C128 63.3225 127.989 62.6475 127.969 61.9752Z" fill="black"/>
<path opacity="0.5" fill-rule="evenodd" clip-rule="evenodd" d="M126.499 50.1574C108.599 62.0629 87.1095 69 64 69C40.8905 69 19.4012 62.0629 1.50097 50.1574C0.518123 54.615 0 59.247 0 64C0 99.3462 28.6538 128 64 128C99.3462 128 128 99.3462 128 64C128 59.247 127.482 54.615 126.499 50.1574Z" fill="black"/>
</svg>
