<svg width="451" height="171" viewBox="0 0 451 171" fill="none" xmlns="http://www.w3.org/2000/svg">
<g filter="url(#filter0_f)">
<g filter="url(#filter1_d)">
<path fill-rule="evenodd" clip-rule="evenodd" d="M318 137.81L313 144V14L318 4V137.81ZM436.039 4L313 154V159H318L378.5 84L378.543 84.0556L383.011 78.5147L383 78.5L443 4H436.039ZM382.223 88.8564L386.62 83.357L443 159H436L382.223 88.8564Z" fill="url(#paint0_linear)"/>
</g>
<g filter="url(#filter2_d)">
<path fill-rule="evenodd" clip-rule="evenodd" d="M243.403 76.5L213 4L182.597 76.5H191.125L213 24L234.875 76.5H243.403ZM247.597 86.5H239.042L263 144L278 159L247.597 86.5ZM186.958 86.5H178.403L148 159L163 144L186.958 86.5Z" fill="url(#paint1_linear)"/>
</g>
<g filter="url(#filter3_d)">
<path fill-rule="evenodd" clip-rule="evenodd" d="M138 4H13L8 9H34H70.5H75.5H111H133L138 4ZM75.5 19H70.5V159L75.5 149V19Z" fill="url(#paint2_linear)"/>
</g>
</g>
<g filter="url(#filter4_d)">
<path fill-rule="evenodd" clip-rule="evenodd" d="M318 137.81L313 144V14L318 4V137.81ZM436.039 4L313 154V159H318L378.5 84L378.543 84.0556L383.011 78.5147L383 78.5L443 4H436.039ZM382.223 88.8564L386.62 83.357L443 159H436L382.223 88.8564Z" fill="url(#paint3_linear)"/>
</g>
<g filter="url(#filter5_d)">
<path fill-rule="evenodd" clip-rule="evenodd" d="M243.403 76.5L213 4L182.597 76.5H191.125L213 24L234.875 76.5H243.403ZM247.597 86.5H239.042L263 144L278 159L247.597 86.5ZM186.958 86.5H178.403L148 159L163 144L186.958 86.5Z" fill="url(#paint4_linear)"/>
</g>
<g filter="url(#filter6_d)">
<path fill-rule="evenodd" clip-rule="evenodd" d="M138 4H13L8 9H34H70.5H75.5H111H133L138 4ZM75.5 19H70.5V159L75.5 149V19Z" fill="url(#paint5_linear)"/>
</g>
<defs>
<filter id="filter0_f" x="4" y="0" width="443" height="163" filterUnits="userSpaceOnUse" color-interpolation-filters="sRGB">
<feFlood flood-opacity="0" result="BackgroundImageFix"/>
<feBlend mode="normal" in="SourceGraphic" in2="BackgroundImageFix" result="shape"/>
<feGaussianBlur stdDeviation="2" result="effect1_foregroundBlur"/>
</filter>
<filter id="filter1_d" x="305" y="0" width="146" height="171" filterUnits="userSpaceOnUse" color-interpolation-filters="sRGB">
<feFlood flood-opacity="0" result="BackgroundImageFix"/>
<feColorMatrix in="SourceAlpha" type="matrix" values="0 0 0 0 0 0 0 0 0 0 0 0 0 0 0 0 0 0 127 0"/>
<feOffset dy="4"/>
<feGaussianBlur stdDeviation="4"/>
<feColorMatrix type="matrix" values="0 0 0 0 0 0 0 0 0 0 0 0 0 0 0 0 0 0 0.75 0"/>
<feBlend mode="normal" in2="BackgroundImageFix" result="effect1_dropShadow"/>
<feBlend mode="normal" in="SourceGraphic" in2="effect1_dropShadow" result="shape"/>
</filter>
<filter id="filter2_d" x="140" y="0" width="146" height="171" filterUnits="userSpaceOnUse" color-interpolation-filters="sRGB">
<feFlood flood-opacity="0" result="BackgroundImageFix"/>
<feColorMatrix in="SourceAlpha" type="matrix" values="0 0 0 0 0 0 0 0 0 0 0 0 0 0 0 0 0 0 127 0"/>
<feOffset dy="4"/>
<feGaussianBlur stdDeviation="4"/>
<feColorMatrix type="matrix" values="0 0 0 0 0 0 0 0 0 0 0 0 0 0 0 0 0 0 0.75 0"/>
<feBlend mode="normal" in2="BackgroundImageFix" result="effect1_dropShadow"/>
<feBlend mode="normal" in="SourceGraphic" in2="effect1_dropShadow" result="shape"/>
</filter>
<filter id="filter3_d" x="0" y="0" width="146" height="171" filterUnits="userSpaceOnUse" color-interpolation-filters="sRGB">
<feFlood flood-opacity="0" result="BackgroundImageFix"/>
<feColorMatrix in="SourceAlpha" type="matrix" values="0 0 0 0 0 0 0 0 0 0 0 0 0 0 0 0 0 0 127 0"/>
<feOffset dy="4"/>
<feGaussianBlur stdDeviation="4"/>
<feColorMatrix type="matrix" values="0 0 0 0 0 0 0 0 0 0 0 0 0 0 0 0 0 0 0.75 0"/>
<feBlend mode="normal" in2="BackgroundImageFix" result="effect1_dropShadow"/>
<feBlend mode="normal" in="SourceGraphic" in2="effect1_dropShadow" result="shape"/>
</filter>
<filter id="filter4_d" x="305" y="0" width="146" height="171" filterUnits="userSpaceOnUse" color-interpolation-filters="sRGB">
<feFlood flood-opacity="0" result="BackgroundImageFix"/>
<feColorMatrix in="SourceAlpha" type="matrix" values="0 0 0 0 0 0 0 0 0 0 0 0 0 0 0 0 0 0 127 0"/>
<feOffset dy="4"/>
<feGaussianBlur stdDeviation="4"/>
<feColorMatrix type="matrix" values="0 0 0 0 0 0 0 0 0 0 0 0 0 0 0 0 0 0 0.75 0"/>
<feBlend mode="normal" in2="BackgroundImageFix" result="effect1_dropShadow"/>
<feBlend mode="normal" in="SourceGraphic" in2="effect1_dropShadow" result="shape"/>
</filter>
<filter id="filter5_d" x="140" y="0" width="146" height="171" filterUnits="userSpaceOnUse" color-interpolation-filters="sRGB">
<feFlood flood-opacity="0" result="BackgroundImageFix"/>
<feColorMatrix in="SourceAlpha" type="matrix" values="0 0 0 0 0 0 0 0 0 0 0 0 0 0 0 0 0 0 127 0"/>
<feOffset dy="4"/>
<feGaussianBlur stdDeviation="4"/>
<feColorMatrix type="matrix" values="0 0 0 0 0 0 0 0 0 0 0 0 0 0 0 0 0 0 0.75 0"/>
<feBlend mode="normal" in2="BackgroundImageFix" result="effect1_dropShadow"/>
<feBlend mode="normal" in="SourceGraphic" in2="effect1_dropShadow" result="shape"/>
</filter>
<filter id="filter6_d" x="0" y="0" width="146" height="171" filterUnits="userSpaceOnUse" color-interpolation-filters="sRGB">
<feFlood flood-opacity="0" result="BackgroundImageFix"/>
<feColorMatrix in="SourceAlpha" type="matrix" values="0 0 0 0 0 0 0 0 0 0 0 0 0 0 0 0 0 0 127 0"/>
<feOffset dy="4"/>
<feGaussianBlur stdDeviation="4"/>
<feColorMatrix type="matrix" values="0 0 0 0 0 0 0 0 0 0 0 0 0 0 0 0 0 0 0.75 0"/>
<feBlend mode="normal" in2="BackgroundImageFix" result="effect1_dropShadow"/>
<feBlend mode="normal" in="SourceGraphic" in2="effect1_dropShadow" result="shape"/>
</filter>
<linearGradient id="paint0_linear" x1="378" y1="4" x2="378" y2="159" gradientUnits="userSpaceOnUse">
<stop stop-color="#F818F8"/>
<stop offset="1" stop-color="#01F8F8"/>
</linearGradient>
<linearGradient id="paint1_linear" x1="213" y1="4" x2="213" y2="159" gradientUnits="userSpaceOnUse">
<stop stop-color="#F81010"/>
<stop offset="1" stop-color="#4070F8"/>
</linearGradient>
<linearGradient id="paint2_linear" x1="73" y1="4" x2="73" y2="159" gradientUnits="userSpaceOnUse">
<stop stop-color="#F8F800"/>
<stop offset="1" stop-color="#01F800"/>
</linearGradient>
<linearGradient id="paint3_linear" x1="378" y1="4" x2="378" y2="159" gradientUnits="userSpaceOnUse">
<stop stop-color="#F818F8"/>
<stop offset="1" stop-color="#01F8F8"/>
</linearGradient>
<linearGradient id="paint4_linear" x1="213" y1="4" x2="213" y2="159" gradientUnits="userSpaceOnUse">
<stop stop-color="#F81010"/>
<stop offset="1" stop-color="#4070F8"/>
</linearGradient>
<linearGradient id="paint5_linear" x1="73" y1="4" x2="73" y2="159" gradientUnits="userSpaceOnUse">
<stop stop-color="#F8F800"/>
<stop offset="1" stop-color="#01F800"/>
</linearGradient>
</defs>
</svg>
