<svg width="468" height="248" viewBox="0 0 468 248" fill="none" xmlns="http://www.w3.org/2000/svg">
<mask id="path-1-outside-1" maskUnits="userSpaceOnUse" x="0" y="0" width="468" height="248" fill="black">
<rect fill="white" width="468" height="248"/>
<path fill-rule="evenodd" clip-rule="evenodd" d="M78 4H44C21.9086 4 4 21.9086 4 44V74H24V44C24 32.9543 32.9543 24 44 24H78V4ZM4 204V174H24V204C24 215.046 32.9543 224 44 224H78V244H44C21.9086 244 4 226.091 4 204ZM204 224C215.046 224 224 215.046 224 204V174H244V204C244 215.046 252.954 224 264 224H293V244H264C252.053 244 241.329 238.762 234 230.458C226.671 238.762 215.947 244 204 244H178V224H204ZM244 44V74H224V44C224 32.9543 215.046 24 204 24H178V4H204C215.947 4 226.671 9.23755 234 17.5418C241.329 9.23755 252.053 4 264 4H293V24H264C252.954 24 244 32.9543 244 44ZM444 204V174H464V204C464 226.091 446.091 244 424 244H393V224H424C435.046 224 444 215.046 444 204ZM464 44V74H444V44C444 32.9543 435.046 24 424 24H393V4H424C446.091 4 464 21.9086 464 44Z"/>
</mask>
<path fill-rule="evenodd" clip-rule="evenodd" d="M78 4H44C21.9086 4 4 21.9086 4 44V74H24V44C24 32.9543 32.9543 24 44 24H78V4ZM4 204V174H24V204C24 215.046 32.9543 224 44 224H78V244H44C21.9086 244 4 226.091 4 204ZM204 224C215.046 224 224 215.046 224 204V174H244V204C244 215.046 252.954 224 264 224H293V244H264C252.053 244 241.329 238.762 234 230.458C226.671 238.762 215.947 244 204 244H178V224H204ZM244 44V74H224V44C224 32.9543 215.046 24 204 24H178V4H204C215.947 4 226.671 9.23755 234 17.5418C241.329 9.23755 252.053 4 264 4H293V24H264C252.954 24 244 32.9543 244 44ZM444 204V174H464V204C464 226.091 446.091 244 424 244H393V224H424C435.046 224 444 215.046 444 204ZM464 44V74H444V44C444 32.9543 435.046 24 424 24H393V4H424C446.091 4 464 21.9086 464 44Z" fill="white"/>
<path d="M78 4H82V0H78V4ZM4 74H0V78H4V74ZM24 74V78H28V74H24ZM78 24V28H82V24H78ZM4 174V170H0V174H4ZM24 174H28V170H24V174ZM78 224H82V220H78V224ZM78 244V248H82V244H78ZM224 174V170H220V174H224ZM244 174H248V170H244V174ZM293 224H297V220H293V224ZM293 244V248H297V244H293ZM234 230.458L236.999 227.811L234 224.414L231.001 227.811L234 230.458ZM178 244H174V248H178V244ZM178 224V220H174V224H178ZM244 74V78H248V74H244ZM224 74H220V78H224V74ZM178 24H174V28H178V24ZM178 4V0H174V4H178ZM234 17.5418L231.001 20.1887L234 23.5865L236.999 20.1887L234 17.5418ZM293 4H297V0H293V4ZM293 24V28H297V24H293ZM444 174V170H440V174H444ZM464 174H468V170H464V174ZM393 244H389V248H393V244ZM393 224V220H389V224H393ZM464 74V78H468V74H464ZM444 74H440V78H444V74ZM393 24H389V28H393V24ZM393 4V0H389V4H393ZM44 8H78V0H44V8ZM8 44C8 24.1178 24.1177 8 44 8V0C19.6995 0 0 19.6995 0 44H8ZM8 74V44H0V74H8ZM24 70H4V78H24V70ZM20 44V74H28V44H20ZM44 20C30.7452 20 20 30.7452 20 44H28C28 35.1634 35.1634 28 44 28V20ZM78 20H44V28H78V20ZM74 4V24H82V4H74ZM0 174V204H8V174H0ZM24 170H4V178H24V170ZM28 204V174H20V204H28ZM44 220C35.1634 220 28 212.837 28 204H20C20 217.255 30.7452 228 44 228V220ZM78 220H44V228H78V220ZM82 244V224H74V244H82ZM44 248H78V240H44V248ZM0 204C0 228.301 19.6995 248 44 248V240C24.1178 240 8 223.882 8 204H0ZM220 204C220 212.837 212.837 220 204 220V228C217.255 228 228 217.255 228 204H220ZM220 174V204H228V174H220ZM244 170H224V178H244V170ZM248 204V174H240V204H248ZM264 220C255.163 220 248 212.837 248 204H240C240 217.255 250.745 228 264 228V220ZM293 220H264V228H293V220ZM297 244V224H289V244H297ZM264 248H293V240H264V248ZM231.001 233.105C239.058 242.233 250.858 248 264 248V240C253.248 240 243.601 235.292 236.999 227.811L231.001 233.105ZM204 248C217.142 248 228.942 242.233 236.999 233.105L231.001 227.811C224.399 235.292 214.752 240 204 240V248ZM178 248H204V240H178V248ZM174 224V244H182V224H174ZM204 220H178V228H204V220ZM240 44V74H248V44H240ZM244 70H224V78H244V70ZM228 74V44H220V74H228ZM204 28C212.837 28 220 35.1634 220 44H228C228 30.7452 217.255 20 204 20V28ZM178 28H204V20H178V28ZM174 4V24H182V4H174ZM204 0H178V8H204V0ZM236.999 14.8948C228.942 5.76683 217.142 0 204 0V8C214.752 8 224.399 12.7083 231.001 20.1887L236.999 14.8948ZM236.999 20.1887C243.601 12.7083 253.248 8 264 8V0C250.858 0 239.058 5.76683 231.001 14.8948L236.999 20.1887ZM264 8H293V0H264V8ZM289 4V24H297V4H289ZM293 20H264V28H293V20ZM264 20C250.745 20 240 30.7452 240 44H248C248 35.1634 255.163 28 264 28V20ZM440 174V204H448V174H440ZM464 170H444V178H464V170ZM468 204V174H460V204H468ZM424 248C448.301 248 468 228.301 468 204H460C460 223.882 443.882 240 424 240V248ZM393 248H424V240H393V248ZM389 224V244H397V224H389ZM424 220H393V228H424V220ZM440 204C440 212.837 432.837 220 424 220V228C437.255 228 448 217.255 448 204H440ZM468 74V44H460V74H468ZM444 78H464V70H444V78ZM440 44V74H448V44H440ZM424 28C432.837 28 440 35.1634 440 44H448C448 30.7452 437.255 20 424 20V28ZM393 28H424V20H393V28ZM389 4V24H397V4H389ZM424 0H393V8H424V0ZM468 44C468 19.6995 448.301 0 424 0V8C443.882 8 460 24.1177 460 44H468Z" fill="black" mask="url(#path-1-outside-1)"/>
</svg>
