<svg width="300" height="100" viewBox="0 0 300 100" fill="none" xmlns="http://www.w3.org/2000/svg">
<g style="mix-blend-mode:hard-light">
<rect x="3.5" y="3.5" width="293" height="93" rx="17.5" fill="url(#paint0_linear)" fill-opacity="0.1"/>
<rect x="3.5" y="3.5" width="293" height="93" rx="17.5" stroke="#4070F8" stroke-width="5"/>
</g>
<rect x="1" y="1" width="298" height="98" rx="20" fill="url(#paint1_linear)" fill-opacity="0.1"/>
<rect x="3.5" y="3.5" width="293" height="93" rx="17.5" stroke="url(#paint2_linear)" stroke-opacity="0.75" stroke-width="5"/>
<g opacity="0.5">
<rect x="1" y="1" width="298" height="98" rx="20" fill="url(#paint3_linear)"/>
<path fill-rule="evenodd" clip-rule="evenodd" d="M296.816 11.9024C253.481 36.1535 203.38 50 150 50C96.6204 50 46.5188 36.1535 3.18417 11.9024C6.49577 5.43028 13.2305 1 21 1H279C286.769 1 293.504 5.43027 296.816 11.9024Z" fill="white" fill-opacity="0.45"/>
</g>
<rect x="1" y="1" width="298" height="98" rx="19" stroke="black" stroke-width="2"/>
<defs>
<linearGradient id="paint0_linear" x1="150" y1="0.99998" x2="297.755" y2="100.843" gradientUnits="userSpaceOnUse">
<stop stop-color="#4070F8"/>
<stop offset="1" stop-color="#F818F8"/>
</linearGradient>
<linearGradient id="paint1_linear" x1="150" y1="0.99998" x2="297.755" y2="100.843" gradientUnits="userSpaceOnUse">
<stop stop-color="#01F8F8"/>
<stop offset="1" stop-color="#F81010"/>
</linearGradient>
<linearGradient id="paint2_linear" x1="1" y1="1" x2="298.186" y2="101.41" gradientUnits="userSpaceOnUse">
<stop stop-color="#01F8F8"/>
<stop offset="1" stop-color="#F818F8" stop-opacity="0.75"/>
</linearGradient>
<linearGradient id="paint3_linear" x1="1" y1="1" x2="148.754" y2="100.843" gradientUnits="userSpaceOnUse">
<stop stop-color="white"/>
<stop offset="1" stop-color="white" stop-opacity="0"/>
</linearGradient>
</defs>
</svg>
