<svg width="400" height="100" viewBox="0 0 400 100" fill="none" xmlns="http://www.w3.org/2000/svg">
<g style="mix-blend-mode:hard-light">
<rect x="2.5" y="2.5" width="395" height="95" rx="17.5" fill="url(#paint0_linear)" fill-opacity="0.1"/>
<rect x="2.5" y="2.5" width="395" height="95" rx="17.5" stroke="#4070F8" stroke-width="5"/>
</g>
<rect width="400" height="100" rx="20" fill="url(#paint1_linear)" fill-opacity="0.1"/>
<rect x="2.5" y="2.5" width="395" height="95" rx="17.5" stroke="url(#paint2_linear)" stroke-opacity="0.75" stroke-width="5"/>
<g opacity="0.5">
<rect width="400" height="100" rx="20" fill="url(#paint3_linear)"/>
<path fill-rule="evenodd" clip-rule="evenodd" d="M389.459 2.37387C333.067 32.7578 268.547 50 200 50C131.453 50 66.9331 32.7578 10.5409 2.37387C13.3572 0.859298 16.5782 0 20 0H380C383.422 0 386.643 0.859299 389.459 2.37387Z" fill="white" fill-opacity="0.45"/>
</g>
<rect x="1" y="1" width="398" height="98" rx="19" stroke="black" stroke-width="2"/>
<defs>
<linearGradient id="paint0_linear" x1="200" y1="-2.01166e-05" x2="361.379" y2="143.448" gradientUnits="userSpaceOnUse">
<stop stop-color="#4070F8"/>
<stop offset="1" stop-color="#F818F8"/>
</linearGradient>
<linearGradient id="paint1_linear" x1="200" y1="-2.01166e-05" x2="361.379" y2="143.448" gradientUnits="userSpaceOnUse">
<stop stop-color="#01F8F8"/>
<stop offset="1" stop-color="#F81010"/>
</linearGradient>
<linearGradient id="paint2_linear" x1="0" y1="0" x2="371.134" y2="164.948" gradientUnits="userSpaceOnUse">
<stop stop-color="#01F8F8"/>
<stop offset="1" stop-color="#F818F8" stop-opacity="0.75"/>
</linearGradient>
<linearGradient id="paint3_linear" x1="0" y1="0" x2="161.379" y2="143.448" gradientUnits="userSpaceOnUse">
<stop stop-color="white"/>
<stop offset="1" stop-color="white" stop-opacity="0"/>
</linearGradient>
</defs>
</svg>
