<svg width="400" height="100" viewBox="0 0 400 100" fill="none" xmlns="http://www.w3.org/2000/svg">
<g style="mix-blend-mode:hard-light">
<rect x="3.5" y="3.5" width="393" height="93" rx="17.5" fill="url(#paint0_linear)" fill-opacity="0.1"/>
<rect x="3.5" y="3.5" width="393" height="93" rx="17.5" stroke="#4070F8" stroke-width="5"/>
</g>
<rect x="1" y="1" width="398" height="98" rx="20" fill="url(#paint1_linear)" fill-opacity="0.1"/>
<rect x="3.5" y="3.5" width="393" height="93" rx="17.5" stroke="url(#paint2_linear)" stroke-opacity="0.75" stroke-width="5"/>
<g opacity="0.5">
<rect x="1" y="1" width="398" height="98" rx="20" fill="url(#paint3_linear)"/>
<path fill-rule="evenodd" clip-rule="evenodd" d="M388.441 3.36405C332.347 33.1169 268.176 50 200 50C131.824 50 67.6526 33.1169 11.5591 3.36405C14.3711 1.85558 17.5857 1 21 1H379C382.414 1 385.629 1.85558 388.441 3.36405Z" fill="white" fill-opacity="0.425"/>
</g>
<rect x="1" y="1" width="398" height="98" rx="19" stroke="black" stroke-width="2"/>
<defs>
<linearGradient id="paint0_linear" x1="200" y1="0.99998" x2="358.416" y2="143.969" gradientUnits="userSpaceOnUse">
<stop stop-color="#4070F8"/>
<stop offset="1" stop-color="#F818F8"/>
</linearGradient>
<linearGradient id="paint1_linear" x1="200" y1="0.99998" x2="358.416" y2="143.969" gradientUnits="userSpaceOnUse">
<stop stop-color="#01F8F8"/>
<stop offset="1" stop-color="#F81010"/>
</linearGradient>
<linearGradient id="paint2_linear" x1="1" y1="1" x2="368.409" y2="166.792" gradientUnits="userSpaceOnUse">
<stop stop-color="#01F8F8"/>
<stop offset="1" stop-color="#F818F8" stop-opacity="0.75"/>
</linearGradient>
<linearGradient id="paint3_linear" x1="1" y1="1" x2="159.416" y2="143.969" gradientUnits="userSpaceOnUse">
<stop stop-color="white"/>
<stop offset="1" stop-color="white" stop-opacity="0"/>
</linearGradient>
</defs>
</svg>
