<svg width="300" height="100" viewBox="0 0 300 100" fill="none" xmlns="http://www.w3.org/2000/svg">
<g style="mix-blend-mode:hard-light">
<rect x="2.5" y="2.5" width="295" height="95" rx="17.5" fill="url(#paint0_linear)" fill-opacity="0.1"/>
<rect x="2.5" y="2.5" width="295" height="95" rx="17.5" stroke="#4070F8" stroke-width="5"/>
</g>
<rect width="300" height="100" rx="20" fill="url(#paint1_linear)" fill-opacity="0.1"/>
<rect x="2.5" y="2.5" width="295" height="95" rx="17.5" stroke="url(#paint2_linear)" stroke-opacity="0.75" stroke-width="5"/>
<g opacity="0.5">
<rect width="300" height="100" rx="20" fill="url(#paint3_linear)"/>
<path fill-rule="evenodd" clip-rule="evenodd" d="M297.9 11.0688C254.252 35.8495 203.778 50 150 50C96.2216 50 45.7482 35.8495 2.10001 11.0688C5.38071 4.50633 12.1641 0 20 0H280C287.836 0 294.619 4.50633 297.9 11.0688Z" fill="white" fill-opacity="0.45"/>
</g>
<rect x="1" y="1" width="298" height="98" rx="19" stroke="black" stroke-width="2"/>
<defs>
<linearGradient id="paint0_linear" x1="150" y1="-2.01166e-05" x2="300" y2="100" gradientUnits="userSpaceOnUse">
<stop stop-color="#4070F8"/>
<stop offset="1" stop-color="#F818F8"/>
</linearGradient>
<linearGradient id="paint1_linear" x1="150" y1="-2.01166e-05" x2="300" y2="100" gradientUnits="userSpaceOnUse">
<stop stop-color="#01F8F8"/>
<stop offset="1" stop-color="#F81010"/>
</linearGradient>
<linearGradient id="paint2_linear" x1="0" y1="0" x2="300" y2="100" gradientUnits="userSpaceOnUse">
<stop stop-color="#01F8F8"/>
<stop offset="1" stop-color="#F818F8" stop-opacity="0.75"/>
</linearGradient>
<linearGradient id="paint3_linear" x1="0" y1="0" x2="150" y2="100" gradientUnits="userSpaceOnUse">
<stop stop-color="white"/>
<stop offset="1" stop-color="white" stop-opacity="0"/>
</linearGradient>
</defs>
</svg>
